<?xml version="1.0" encoding="UTF-8"?>
<svg width="24px" height="24px" viewBox="0 0 24 24" version="1.1" xmlns="http://www.w3.org/2000/svg" xmlns:xlink="http://www.w3.org/1999/xlink">
    <!-- Generator: Sketch 64 (93537) - https://sketch.com -->
    <title>Mask</title>
    <desc>Created with Sketch.</desc>
    <g id="Page-1" stroke="none" stroke-width="1" fill="none" fill-rule="evenodd">
        <g id="Page-08" transform="translate(-710.000000, -391.000000)" fill="#CCCCCC">
            <g id="ui-Search-Bar" transform="translate(688.000000, 373.000000)">
                <path d="M37.7271527,32.7735849 L37.3510978,32.4109605 C38.6672899,30.8798799 39.4596913,28.8921612 39.4596913,26.7298456 C39.4596913,21.9082847 35.5514065,18 30.7298456,18 C25.9082847,18 22,21.9082847 22,26.7298456 C22,31.5514065 25.9082847,35.4596913 30.7298456,35.4596913 C32.8921612,35.4596913 34.8798799,34.6672899 36.4109605,33.3510978 L36.7735849,33.7271527 L36.7735849,34.7881647 L42.7817447,40.7843081 C43.172383,41.1741652 43.8050022,41.1738486 44.1952501,40.7836007 L44.7836007,40.1952501 C45.1738486,39.8050022 45.1741652,39.172383 44.7843081,38.7817447 L38.7881647,32.7735849 L38.7881647,32.7735849 L37.7271527,32.7735849 Z M24.6861063,26.7298456 C24.6861063,23.3856432 27.3856432,20.6861063 30.7298456,20.6861063 C34.074048,20.6861063 36.7735849,23.3856432 36.7735849,26.7298456 C36.7735849,30.074048 34.074048,32.7735849 30.7298456,32.7735849 C27.3856432,32.7735849 24.6861063,30.074048 24.6861063,26.7298456 Z" id="Mask"></path>
            </g>
        </g>
    </g>
</svg>